<?xml version="1.0" encoding="UTF-8" standalone="no"?><!DOCTYPE svg PUBLIC "-//W3C//DTD SVG 1.1//EN" "http://www.w3.org/Graphics/SVG/1.1/DTD/svg11.dtd"><svg width="100%" height="100%" viewBox="0 0 4844 1309" version="1.1" xmlns="http://www.w3.org/2000/svg" xmlns:xlink="http://www.w3.org/1999/xlink" xml:space="preserve" xmlns:serif="http://www.serif.com/" style="fill-rule:evenodd;clip-rule:evenodd;stroke-linejoin:round;stroke-miterlimit:2;"><g><path d="M100.981,976.09c2.941,11.68 5.667,21.519 8.394,31.357c-25.196,-28.089 -43.602,-59.642 -51.158,-96.089c-13.919,-67.14 6.783,-126.892 42.194,-182.911c60.151,-95.155 147.063,-160.353 242.929,-214.958c113.801,-64.821 236.214,-106.988 364.851,-129.252c130.008,-22.502 260.51,-27.415 388.867,11.414c73.428,22.212 139.282,56.605 182.686,124.269c29.482,45.961 29.016,96.85 27.159,148.665c-5.325,-15.263 -9.315,-31.16 -16.207,-45.679c-29.574,-62.301 -81.607,-99.887 -143.462,-124.789c-106.034,-42.688 -216.706,-47.444 -329.009,-37.668c-105.812,9.211 -208.092,33.491 -306.649,72.541c-135.48,53.68 -259.375,125.059 -350.083,243.025c-44.6,58.002 -72.239,122.437 -60.511,200.073Z" style="fill:#4b004d;fill-rule:nonzero;"/><path d="M1017.225,603.517c69.307,11.05 133.968,29.303 189.103,72.124c73.162,56.822 93.345,141.918 54.009,226.389c-5.701,12.242 -11.159,24.597 -19.819,36.307c1.792,-15.134 4.823,-30.241 5.164,-45.408c1.659,-73.849 -39.488,-121.179 -99.784,-154.641c-64.472,-35.779 -135.446,-47.74 -208.075,-48.769c-186.49,-2.643 -357.957,47.691 -512.772,151.732c-60.826,40.877 -113.565,90.392 -146.655,157.942c-39.066,79.75 -29.514,142.128 32.797,205.295c1.167,1.183 1.319,3.367 2.2,5.786c-62.277,-32.329 -112.039,-80.303 -123.287,-140.504c-10.67,-57.112 4.655,-108.628 34.845,-156.25c51.393,-81.068 124.544,-138.319 206.476,-185.747c103.888,-60.137 215.817,-97.985 333.59,-118.249c82.916,-14.267 166.57,-18.042 252.207,-6.006Z" style="fill:#4b004d;fill-rule:nonzero;"/><path d="M4454.899,828.461l0,-552.474l118.827,0l0,297.776c37.928,-0.609 76.367,-0.07 93.052,-37.788c13.753,-31.091 17.353,-66.674 26.093,-102.927c-3.606,0.752 -1.645,-0.01 0.317,-0.014c36.057,-0.071 72.113,-0.052 109.874,-0.052c6.03,74.8 -6.234,143.043 -63.821,198.797c34.333,64.92 68.705,129.912 104.57,197.729c-48.723,0 -94.28,0.56 -139.785,-0.727c-5.524,-0.156 -12.44,-9.375 -15.883,-15.888c-35.215,-66.624 -69.845,-133.558 -104.641,-200.404c-1.813,-3.483 -3.648,-6.954 -8.63,-9.832l0,225.806l-119.972,0Z" style="fill:#4b004d;fill-rule:nonzero;"/><path d="M4262.872,432.94l116.147,0c4.794,71.517 -4.483,137.136 -55.704,190.065c-8.782,9.075 -4.978,14.942 -0.511,23.32c31.799,59.646 63.2,119.504 96.787,183.199c-31.803,0 -60.977,-3.72 -88.795,0.836c-46.533,7.622 -68.857,-13.376 -86.679,-53.341c-24.448,-54.824 -54.58,-107.114 -82.371,-160.442c-2.463,-4.727 -5.615,-9.094 -11.178,-17.998l0,229.869l-118.415,0l0,-552.873l118.16,0l0,296.998c66.949,3.453 116.917,-17.713 112.558,-139.632Z" style="fill:#4b004d;fill-rule:nonzero;"/><path d="M1747.094,832.723c-156.929,-17.496 -223.566,-202.142 -139.891,-321.22c41.47,-59.015 103.379,-81.45 172.998,-82.107c77.495,-0.731 142.335,25.86 183.361,96.016c20.396,34.879 27.925,73.351 27.998,113.146c0.115,62.531 4.387,124.222 28.628,182.91c0.729,1.764 0.092,4.092 0.092,8.02c-35.851,0 -71.75,0.358 -107.62,-0.475c-4.262,-0.099 -10.292,-5.903 -12.196,-10.449c-6.036,-14.407 -10.504,-29.47 -16.679,-47.493c-33.45,48.922 -79.535,66.009 -136.691,61.65m-41.881,-258.498c-2.382,4.983 -4.923,9.896 -7.121,14.958c-28.488,65.611 7.976,128.445 77.5,133.614c43.284,3.218 74.217,-12.752 88.89,-45.892c16.387,-37.012 6.306,-92.776 -21.252,-117.557c-34.57,-31.086 -98.508,-25.24 -138.016,14.877Z" style="fill:#4b004d;fill-rule:nonzero;"/><path d="M2910.643,797.582c-86.519,-63.629 -104.954,-187.57 -56.121,-271.594c25.215,-43.386 62.875,-71.373 110.284,-85.348c66.251,-19.53 131.128,-16.832 191.903,19.33c57.658,34.308 83.368,88.043 89.806,152.661c5.473,54.932 9.653,110.01 16.178,164.812c1.993,16.734 9.856,32.77 15.509,50.635l-118.014,0c-6.181,-17.374 -12.731,-35.784 -19.399,-54.524c-71.393,71.796 -142.996,79.428 -230.146,24.029m63.454,-94.7c7.115,4.145 13.922,8.973 21.392,12.329c71.734,32.232 139.531,-14.149 133.138,-90.911c-3.633,-43.614 -24.206,-71.986 -58.81,-81.105c-43.524,-11.47 -85.524,1.089 -108.046,32.209c-18.783,25.956 -24.967,88.19 12.326,127.478Z" style="fill:#4b004d;fill-rule:nonzero;"/><path d="M3587.558,613.047c13.262,-152.538 158.391,-210.717 282.272,-172.689c45.257,13.892 83.295,37.732 97.711,86.902c15.414,52.575 -4.527,102.9 -52.326,129.3c-64.334,35.531 -131.231,39.862 -199.956,13.354c2.653,16.101 11.912,31.645 30.267,36.136c28.497,6.972 58.191,12.288 87.388,12.337c34.993,0.058 69.997,-6.154 106.538,-9.805l0,108.714c-96.421,18.978 -193.72,36.557 -281.769,-29.612c-57.103,-42.913 -74.133,-103.984 -70.124,-174.636m150.741,-53.096c-6.94,7.108 -13.879,14.215 -23.514,24.083c41.611,9.526 78.805,17.793 116.386,6.245c8.739,-2.685 14.795,-14.098 22.086,-21.494c-7.894,-7.364 -14.856,-19.453 -23.854,-21.23c-30.094,-5.945 -60.617,-5.893 -91.104,12.397Z" style="fill:#4b004d;fill-rule:nonzero;"/><path d="M2209.951,702.455c31.282,25.995 65.177,26.25 98.347,11.154c30.198,-13.743 40.381,-42.698 40.808,-73.825c0.931,-67.945 0.288,-135.912 0.288,-205.344l117.011,0c0.278,0.355 1.815,1.398 1.809,2.433c-0.427,75.551 2.332,151.308 -2.371,226.598c-5.619,89.965 -81.311,160.839 -173.634,168.672c-71.992,6.108 -135.782,-11.417 -184.04,-69.115c-22.218,-26.565 -34.544,-57.792 -40.536,-91.509c-2.169,-12.205 -2.829,-24.81 -2.88,-37.237c-0.269,-66.474 -0.127,-132.949 -0.127,-200.363l118.778,0c0,65.7 -0.22,130.717 0.106,195.732c0.134,26.646 3.847,52.436 26.439,72.804Z" style="fill:#4b004d;fill-rule:nonzero;"/><path d="M604.425,995.405c-38.585,24.765 -74.288,49.956 -102.883,85.276c-67.57,83.462 -49.212,173.188 67.125,210.177c17.001,5.405 34.83,8.208 52.275,12.214c-0.132,1.709 -0.265,3.418 -0.397,5.128c-23.108,-2.841 -46.362,-4.817 -69.291,-8.708c-44.742,-7.593 -87.472,-20.991 -122.958,-50.883c-55.338,-46.615 -66.514,-100.831 -35.771,-166.715c26.725,-57.275 71.271,-98.692 122.314,-132.624c129.316,-85.965 272.446,-125.962 427.635,-119.375c60.63,2.574 118.705,16.446 170.155,51.96c57.088,39.406 75.232,108.016 44.592,170.133c-22.189,44.984 -54.443,81.162 -93.002,112.274c-4.355,3.514 -10.269,5.095 -15.314,7.503c16.086,-24.005 33.713,-45.897 46.536,-70.312c32.079,-61.074 12.39,-119.278 -48.66,-152.374c-60.443,-32.767 -125.849,-36.932 -192.05,-31.691c-88.512,7.008 -171.99,32.16 -250.307,78.017Z" style="fill:#4b004d;fill-rule:nonzero;"/><path d="M286.467,398.26c-85.417,51.796 -162.75,110.697 -219.169,192.858c-25.141,36.612 -45.109,76.034 -52.604,120.633c-0.678,4.034 -1.876,8.076 -3.501,11.826c-1.246,2.876 -3.545,5.295 -5.378,7.92c-19.948,-95.47 13.194,-175.614 72.414,-247.175c81.301,-98.245 186.7,-163.146 301.713,-214.495c110.494,-49.331 225.803,-80.517 346.012,-93.193c129.019,-13.606 256.033,-8.302 376.455,46.832c68.915,31.553 117.822,82.401 143.986,155.897c-21.192,-18.958 -39.773,-38.989 -61.583,-54.473c-76.891,-54.591 -165.754,-74.402 -257.586,-81.027c-158.868,-11.461 -312.93,13.811 -460.997,71.408c-60.926,23.7 -119.067,54.56 -179.762,82.991Z" style="fill:#4b004d;fill-rule:nonzero;"/><path d="M3468.614,827.087c-104.157,-29.221 -156.761,-98.646 -156.764,-204.974c-0.003,-86.715 -0,-173.43 -0,-260.145c0,-7.456 -0,-14.912 -0,-23.228l117.636,0l0,106.761l110.823,0l0,110.951l-112.114,0c2.069,35.974 1.198,70.03 6.639,103.046c6.859,41.619 51.391,67.523 100.901,63.138c8.88,-0.787 17.736,-1.839 27.865,-2.901l0,109.016c-30.843,8.044 -62.047,4.922 -94.985,-1.664Z" style="fill:#4b004d;fill-rule:nonzero;"/><path d="M2703.968,436.388c32.271,-6.962 62.853,-11.329 94.213,-3.006l0,112.086c-16.285,0 -31.399,-0.557 -46.459,0.1c-53.751,2.347 -84.208,33.077 -84.824,86.798c-0.668,58.26 -0.153,116.534 -0.153,174.801l0,21.342l-118.797,0c0,-52.733 -0.371,-104.623 0.153,-156.503c0.273,-26.973 -0.782,-54.436 3.805,-80.8c14.789,-85.012 68.749,-133.678 152.062,-154.819Z" style="fill:#4b004d;fill-rule:nonzero;"/><path d="M912.122,1228.588c-75.927,40.88 -154.214,60.749 -238.813,41.61c-48.997,-11.085 -77.184,-43.717 -68.021,-83.343c4.708,-20.362 16.713,-42.195 31.908,-56.446c79.764,-74.806 175.49,-100.682 283.002,-84.552c8.036,1.206 15.83,4.739 23.45,7.886c59.221,24.458 72.114,72.472 30.211,121.248c-17.253,20.083 -40.123,35.341 -61.738,53.598m-174.298,-85.413c-7.25,6.38 -15.128,12.181 -21.645,19.238c-30.242,32.748 -21.802,65.79 21.343,75.024c59.167,12.663 112.952,-1.703 156.36,-44.597c33.632,-33.234 23.64,-65.826 -22.32,-76.538c-47.121,-10.983 -90.107,2.712 -133.738,26.873Z" style="fill:#4b004d;fill-rule:nonzero;"/><path d="M200.119,270.068c-55.398,41.1 -104.843,86.072 -142.219,142.934c-7.065,10.748 -13.008,22.234 -23.045,32.268c6.358,-17.144 11.71,-34.743 19.24,-51.355c41.756,-92.11 115.011,-154.967 198.715,-205.856c163.836,-99.606 342.28,-148.288 534.348,-141.614c97.784,3.398 190.45,25.6 268.002,90.602c2.592,2.173 5.122,4.47 7.335,7.011c0.582,0.668 -0.136,2.468 -0.317,4.374c-87.591,-48.696 -182.483,-62.267 -280.856,-62.139c-115.957,0.151 -227.757,21.945 -336.918,59.603c-86.702,29.911 -168.034,70.385 -244.284,124.171Z" style="fill:#4b004d;fill-rule:nonzero;"/><path d="M658.42,0.051l73.968,0c0.276,2.757 0.552,5.514 0.828,8.27c-172.409,-4.865 -330.803,40.599 -476.714,130.889c65.755,-65.066 243.014,-141.459 401.919,-139.16Z" style="fill:#4b004d;fill-rule:nonzero;"/><path d="M111.529,1013.176c-0.208,1.181 -1.458,1.32 -2.708,1.458c0.556,-0.833 1.111,-1.667 2.708,-1.458Z" style="fill:#4b004d;fill-rule:nonzero;"/><path d="M1248.82,385.606c-1.136,0.179 -1.553,-0.344 -1.97,-0.867c0.896,0.055 1.792,0.11 1.97,0.867Z" style="fill:#4b004d;fill-rule:nonzero;"/><path d="M1068.847,151.75c-0.082,0.003 0.082,-0.004 0,0Z" style="fill:#4b004d;fill-rule:nonzero;"/><g transform="matrix(157.100397,0,0,157.100397,4820.497699,1076.530998)"></g><text x="2680.319px" y="1076.531px" style="font-family:'MuktaMalar-Regular', 'Mukta Malar', sans-serif;font-size:157.1px;fill:#4b004d;">AURA IGNITED,<tspan x="3657.169px " y="1076.531px "> </tspan>TE<tspan x="3857.786px 3944.035px " y="1076.531px 1076.531px ">CH</tspan> AMPLIFI<tspan x="4617.053px " y="1076.531px ">E</tspan>D.</text></g></svg>